<?xml version="1.0" standalone="no"?>
<!DOCTYPE svg PUBLIC "-//W3C//DTD SVG 20010904//EN"
 "http://www.w3.org/TR/2001/REC-SVG-20010904/DTD/svg10.dtd">
<svg version="1.0" xmlns="http://www.w3.org/2000/svg"
 width="512.000000pt" height="512.000000pt" viewBox="0 0 512.000000 512.000000"
 preserveAspectRatio="xMidYMid meet">
<metadata>
Created by potrace 1.14, written by Peter Selinger 2001-2017
</metadata>
<g transform="translate(0.000000,512.000000) scale(0.100000,-0.100000)"
fill="#000000" stroke="none">
<path d="M2538 5025 c-2 -1 -37 -5 -78 -9 -275 -23 -657 -216 -895 -452 -327
-323 -566 -712 -600 -975 -13 -99 -13 -99 4 -100 42 -2 203 0 205 3 2 1 27 50
56 107 253 495 648 811 1100 879 59 9 301 9 367 -1 274 -38 605 -174 911 -373
45 -30 85 -54 87 -54 14 0 -74 183 -145 301 -216 358 -487 582 -787 649 -52
12 -219 30 -225 25z"/>
<path d="M3477 4831 c-16 -6 -15 -11 13 -50 215 -296 387 -608 430 -777 9 -36
19 -47 77 -84 238 -154 452 -391 561 -620 61 -129 84 -230 87 -385 4 -185 -25
-322 -105 -486 -16 -34 -30 -66 -30 -71 0 -13 111 65 188 131 146 126 248 253
317 396 61 126 85 218 92 355 13 267 -80 509 -311 815 -323 427 -699 697
-1071 770 -48 9 -228 14 -248 6z"/>
<path d="M2164 4320 c-158 -47 -260 -111 -382 -239 -109 -113 -201 -256 -294
-456 -169 -362 -223 -749 -153 -1085 18 -85 64 -230 73 -230 4 0 15 42 25 93
19 96 24 112 80 292 194 617 552 1095 994 1327 112 59 256 116 351 138 30 7
50 16 45 20 -23 23 -169 92 -248 119 -116 39 -145 43 -286 46 -100 2 -127 -1
-205 -25z"/>
<path d="M805 4069 c-27 -22 -68 -54 -90 -72 -324 -260 -547 -552 -644 -844
-31 -92 -34 -105 -52 -218 -11 -68 -7 -280 6 -355 32 -180 124 -402 244 -585
157 -240 425 -518 676 -701 86 -62 105 -74 89 -53 -49 61 -210 297 -274 399
-254 410 -378 749 -385 1060 -7 262 66 461 225 618 32 31 76 68 98 82 l39 24
0 111 c0 107 8 229 17 243 2 4 7 23 10 43 3 20 25 93 50 162 24 70 43 127 42
127 0 -1 -23 -19 -51 -41z"/>
<path d="M2970 4050 c-19 -5 -49 -11 -66 -14 -43 -7 -168 -53 -229 -84 -88
-44 -225 -143 -297 -214 -23 -23 -15 -23 51 2 231 88 542 99 746 27 257 -92
435 -276 567 -587 51 -118 78 -215 123 -430 2 -9 7 -43 11 -75 4 -33 9 -62 9
-65 1 -3 5 -41 9 -85 5 -44 10 -91 12 -105 1 -14 3 -62 5 -107 1 -46 5 -83 8
-83 25 0 184 159 259 260 123 163 184 326 186 490 1 112 -7 161 -39 246 -85
227 -268 418 -604 634 -222 142 -365 190 -581 195 -74 2 -151 -1 -170 -5z"/>
<path d="M2730 3625 c-113 -23 -206 -65 -315 -142 -65 -47 -167 -134 -162
-140 6 -5 38 -10 120 -18 37 -3 76 -8 85 -9 9 -2 39 -7 65 -10 27 -4 59 -9 70
-12 12 -2 36 -7 52 -10 451 -80 821 -249 1004 -459 44 -51 37 -28 -38 130
-238 497 -551 735 -881 670z"/>
<path d="M2068 3387 c-113 -173 -167 -266 -244 -422 -276 -563 -225 -927 156
-1116 64 -32 164 -63 247 -78 32 -6 67 -13 79 -15 101 -20 404 -26 574 -11
147 12 149 12 257 29 57 9 108 16 115 16 18 0 3 10 -23 15 -13 3 -71 19 -129
36 -490 145 -808 418 -944 811 -26 75 -31 91 -41 153 -3 17 -8 37 -10 45 -16
60 -23 319 -11 399 3 20 8 54 11 76 3 22 12 67 19 100 8 33 14 61 13 62 -1 1
-32 -44 -69 -100z"/>
<path d="M1112 3305 c-200 -82 -350 -212 -431 -372 -172 -339 -43 -817 374
-1387 109 -149 134 -180 139 -175 5 5 10 37 31 207 5 40 24 186 31 242 2 19 7
51 9 70 3 19 7 58 11 85 3 28 7 61 9 75 2 14 7 52 11 84 3 33 7 66 9 75 1 8
-17 51 -41 95 -140 267 -176 604 -99 911 9 33 18 71 21 84 3 14 7 28 10 33 7
11 9 12 -84 -27z"/>
<path d="M2505 3130 c-103 -22 -179 -127 -234 -321 -28 -100 -27 -106 7 -83
180 120 365 206 470 220 26 3 49 8 52 11 3 3 -24 33 -60 67 -90 85 -169 120
-235 106z"/>
<path d="M3026 2908 c7 -27 16 -66 19 -87 3 -20 8 -48 11 -61 17 -81 1 -244
-27 -274 -24 -26 -4 -23 39 5 79 54 167 151 185 203 36 106 -19 177 -191 245
l-49 19 13 -50z"/>
<path d="M5100 2589 c0 -12 -89 -121 -134 -164 -38 -37 -246 -211 -280 -235
-12 -8 -32 -25 -46 -37 -14 -13 -28 -23 -32 -23 -3 0 -13 -6 -20 -13 -7 -7
-29 -24 -48 -37 -46 -31 -47 -34 -55 -98 -20 -160 -73 -339 -140 -473 -120
-237 -348 -475 -594 -618 -231 -135 -511 -237 -771 -281 l-74 -13 29 -24 c98
-82 392 -172 660 -203 50 -5 101 -12 115 -15 43 -9 212 -6 266 4 263 51 483
224 664 522 129 212 232 474 315 794 38 150 49 196 70 305 38 193 92 606 81
618 -3 3 -6 -1 -6 -9z"/>
<path d="M3703 2577 c-9 -17 -118 -93 -183 -129 -174 -95 -443 -141 -625 -107
-27 5 -63 12 -80 15 -93 16 -275 91 -411 169 -48 28 -49 28 -29 4 10 -13 67
-71 124 -128 280 -276 566 -431 799 -432 236 -1 398 118 438 323 17 84 5 270
-18 293 -3 4 -10 0 -15 -8z"/>
<path d="M4273 2263 c-37 -97 -237 -296 -393 -390 -269 -163 -709 -305 -1050
-340 -30 -3 -56 -6 -58 -8 -7 -7 118 -81 243 -144 166 -85 301 -130 450 -153
64 -9 225 -5 244 6 4 3 21 7 37 10 56 10 174 77 234 133 163 151 274 425 305
753 3 36 8 82 10 102 4 41 -11 61 -22 31z"/>
<path d="M1449 1973 c0 -10 -2 -26 -4 -36 -14 -73 -21 -375 -11 -437 3 -14 7
-44 10 -67 8 -60 46 -206 57 -217 5 -6 9 -17 9 -26 0 -34 95 -176 161 -241
106 -102 265 -175 449 -204 25 -4 97 -8 160 -10 206 -5 437 30 700 106 111 33
348 116 365 129 6 4 22 10 38 14 34 8 36 26 2 26 -47 0 -220 42 -300 73 -195
74 -381 199 -535 357 l-65 68 -87 0 c-261 2 -612 172 -882 426 -32 31 -60 56
-62 56 -2 0 -4 -8 -5 -17z"/>
<path d="M1251 1174 c-31 -114 -42 -257 -27 -352 49 -311 293 -539 686 -643
49 -12 47 -12 105 -24 22 -5 42 -10 45 -10 3 -1 28 -5 55 -9 28 -4 61 -9 74
-12 25 -3 92 -10 206 -19 76 -7 408 -7 500 0 39 3 108 7 155 11 47 3 94 7 105
8 11 2 62 7 114 11 l95 8 -150 51 c-265 92 -430 177 -538 276 l-45 41 -73 -6
c-147 -14 -298 -8 -498 21 -145 21 -362 112 -481 202 -138 105 -234 242 -294
419 l-23 68 -11 -41z"/>
</g>
</svg>
